
Genre:Comedy | Drama
Language: English  http://www.imdb.com/title/tt1134664/
Source:Bluray X264-DIMENSION

General
Complete name :Boogie Woogie 2009.BRRip.XviD.Ac3.Feel-Free
Format : AVI
Format/Info : Audio Video Interleave
File size : 1.68 GiB
Duration : 1h 34mn
Overall bit rate : 2 542 Kbps
Video #0
ID : 0
Format : MPEG-4 Visual
Format profile : AdvancedSimple@L5
Format settings, BVOP : Yes
Format settings, QPel : No
Format settings, GMC : No warppoints
Format settings, Matrix : Default (H.263)
Muxing mode : Packed bitstream
Codec ID : XVID
Codec ID/Hint : XviD
Duration : 1h 34mn
Bit rate : 2 084 Kbps
Width : 652 pixels
Height : 352 pixels
Display aspect ratio : 1.852
Frame rate : 23.976 fps
Resolution : 24 bits
Colorimetry : 4:2:0
Scan type : Progressive
Bits/(Pixel*Frame) : 0.379
Stream size : 1.38 GiB (82%)
Writing library : XviD 1.2.1 (UTC 2008-12-04)
Audio #1
ID : 1
Format : AC-3
Format/Info : Audio Coding 3
Codec ID : 2000
Duration : 1h 34mn
Bit rate mode : Constant
Bit rate : 448 Kbps
Channel(s) : 6 channels
Channel positions : Front: L C R, Surround: L R, LFE
Sampling rate : 48.0 KHz
Stream size : 303 MiB (18%)
Alignment : Split accross interleaves
Interleave, duration : 42 ms (1.00 video frame)
Interleave, preload duration : 500 ms

Plot
A comedy of manners set against the backdrop of contemporary London and the international art scene